<?xml version="1.0" standalone="no"?>
<!DOCTYPE svg PUBLIC "-//W3C//DTD SVG 20010904//EN"
 "http://www.w3.org/TR/2001/REC-SVG-20010904/DTD/svg10.dtd">
<svg version="1.0" xmlns="http://www.w3.org/2000/svg"
 width="201.000000pt" height="293.000000pt" viewBox="0 0 201.000000 293.000000"
 preserveAspectRatio="xMidYMid meet">
<metadata>
Created by potrace 1.16, written by Peter Selinger 2001-2019
</metadata>
<g transform="translate(0.000000,293.000000) scale(0.100000,-0.100000)"
fill="#000000" stroke="none">
<path d="M665 2743 c-4 -60 -17 -195 -29 -300 l-21 -193 60 0 c142 -1 281 -34
339 -82 58 -47 79 -98 74 -179 -3 -56 -9 -76 -34 -111 -60 -86 -209 -159 -355
-175 -83 -8 -83 -8 -69 -92 l12 -71 51 6 c231 26 384 87 506 200 122 113 165
248 126 397 -19 74 -54 127 -111 171 -76 58 -162 82 -357 102 l-58 6 5 56 c3
31 8 87 12 125 l6 67 136 -1 c75 0 173 -4 217 -8 44 -4 81 -7 82 -7 0 1 3 45
5 99 l3 97 -297 0 -296 0 -7 -107z"/>
<path d="M927 1378 c-81 -22 -133 -109 -143 -238 -7 -82 14 -130 64 -145 27
-8 32 -13 28 -30 -3 -11 -6 -31 -6 -45 -1 -45 -12 -52 -53 -35 -48 20 -140 19
-184 -2 -41 -19 -73 -66 -73 -105 0 -25 -3 -28 -35 -28 -79 0 -122 -71 -113
-185 9 -102 66 -180 162 -220 45 -19 59 -60 47 -135 -5 -30 -12 -63 -16 -72
-4 -10 -3 -18 3 -18 12 0 32 53 32 85 0 32 7 34 48 14 47 -22 94 -28 99 -11 3
8 -6 12 -29 12 -42 0 -96 32 -108 66 -14 36 -13 44 8 44 24 0 59 37 73 78 11
31 11 32 41 16 89 -46 168 47 128 151 -9 24 -8 26 7 20 30 -12 97 -33 124 -39
22 -5 46 -32 37 -42 -2 -1 -27 2 -57 8 -52 9 -81 6 -81 -9 0 -4 25 -9 55 -10
31 -1 65 -7 76 -14 28 -15 33 -7 25 44 l-7 44 -53 6 c-73 7 -143 45 -194 105
-32 38 -42 59 -42 86 0 38 21 66 51 66 14 0 19 -7 19 -30 0 -54 73 -66 86 -14
6 25 8 25 68 19 140 -14 166 -24 221 -79 72 -72 89 -112 83 -200 -10 -140
-102 -280 -223 -337 -33 -16 -75 -29 -92 -29 -18 0 -33 -4 -33 -10 0 -5 16
-10 36 -10 l35 0 -7 -45 c-4 -28 -2 -45 4 -45 6 0 13 22 17 48 6 45 9 50 51
71 137 66 237 232 233 383 -2 46 3 74 13 90 32 48 136 265 163 338 19 51 28
96 29 142 1 63 -1 69 -34 103 -52 53 -142 95 -205 95 -43 0 -59 -5 -90 -30
-21 -17 -45 -40 -53 -51 -14 -20 -15 -18 -32 31 -25 73 -56 102 -117 106 -26
2 -65 -2 -86 -8z m141 -31 c22 -17 52 -87 52 -120 0 -16 -16 -56 -36 -90 -51
-88 -54 -119 -15 -156 46 -43 42 -67 -14 -76 -62 -9 -47 -25 23 -25 35 0 66
-6 79 -15 21 -14 23 -12 60 58 22 39 53 86 69 102 17 17 36 39 43 50 7 11 14
16 17 10 20 -43 43 -47 25 -4 -5 13 -12 36 -15 52 -7 29 -26 37 -26 10 0 -33
-52 -105 -98 -134 -58 -37 -110 -39 -148 -5 -26 22 -27 25 -15 55 15 34 21 37
39 19 9 -9 21 -8 52 1 22 6 40 16 40 21 0 13 -42 50 -57 50 -21 0 -15 19 22
71 45 60 91 89 141 89 49 0 150 -47 189 -89 26 -28 30 -40 30 -84 -1 -73 -37
-178 -117 -339 l-68 -138 -73 74 c-81 83 -85 84 -285 107 l-103 11 5 27 c3 14
8 45 11 68 5 34 13 47 41 64 57 35 124 150 124 212 0 30 -14 10 -28 -38 -16
-57 -66 -132 -104 -155 -81 -50 -134 2 -123 120 11 112 58 186 134 211 33 11
109 3 129 -14z m-270 -473 l22 -6 -25 -24 c-19 -17 -25 -33 -25 -63 0 -39 -1
-40 -26 -31 -32 12 -34 12 -34 0 0 -6 12 -15 28 -21 15 -6 47 -29 71 -52 129
-125 95 -295 -45 -225 -166 83 -247 359 -121 413 33 15 115 19 155 9z m-233
-184 c11 -63 61 -154 110 -199 48 -44 50 -58 18 -112 -17 -29 -21 -31 -65 -26
-94 8 -182 101 -195 205 -12 103 24 172 91 172 32 0 35 -2 41 -40z"/>
</g>
</svg>
