<?xml version="1.0" standalone="no"?>
<!DOCTYPE svg PUBLIC "-//W3C//DTD SVG 20010904//EN"
 "http://www.w3.org/TR/2001/REC-SVG-20010904/DTD/svg10.dtd">
<svg version="1.0" xmlns="http://www.w3.org/2000/svg"
 width="202.000000pt" height="282.000000pt" viewBox="0 0 202.000000 282.000000"
 preserveAspectRatio="xMidYMid meet">

<g transform="translate(0.000000,282.000000) scale(0.100000,-0.100000)"
fill="#000000" stroke="none">
<path d="M810 2775 c-8 -2 -31 -6 -52 -10 -35 -5 -36 -7 -43 -58 -3 -29 -8
-70 -11 -92 l-6 -40 144 0 c140 0 144 -1 198 -30 76 -41 103 -94 97 -186 -9
-135 -112 -265 -318 -402 l-116 -76 -6 -77 c-4 -42 -7 -88 -7 -101 l0 -23 389
0 388 0 6 48 c4 26 9 75 13 109 l7 63 -249 -6 c-137 -3 -257 -7 -266 -9 -38
-7 -15 23 34 46 102 47 257 176 317 264 60 87 86 203 69 309 -21 136 -111 223
-270 261 -56 13 -271 19 -318 10z"/>
<path d="M1199 1380 c-56 -30 -107 -96 -129 -168 -26 -85 -25 -138 5 -228 14
-41 25 -83 25 -93 0 -43 -16 -46 -364 -52 -348 -7 -395 -13 -486 -59 -70 -35
-94 -127 -46 -175 31 -31 97 -38 261 -27 72 5 133 7 138 5 4 -2 7 -16 7 -31 0
-15 5 -43 11 -62 6 -19 10 -61 9 -93 -1 -41 4 -68 18 -90 14 -25 18 -46 14
-93 -4 -59 -3 -63 33 -103 44 -48 107 -71 199 -71 83 0 134 16 169 53 19 21
40 32 65 34 56 5 139 50 173 93 35 43 94 72 187 91 34 7 62 17 62 21 0 15 -48
8 -125 -16 -66 -21 -76 -22 -69 -8 13 30 17 152 5 152 -7 0 -11 -22 -11 -57
-1 -100 -52 -182 -142 -227 -29 -14 -67 -26 -85 -26 -28 0 -33 3 -33 24 0 14
-5 28 -10 31 -6 4 0 15 15 27 57 44 65 99 22 145 -11 13 -15 23 -9 23 6 0 19
14 27 31 30 56 0 111 -77 144 -62 25 -230 17 -310 -16 -45 -19 -22 -28 29 -12
27 8 89 17 139 20 77 5 97 3 136 -15 76 -33 101 -103 48 -132 -17 -9 -20 -8
-20 9 0 25 -45 79 -56 68 -5 -5 -9 -32 -10 -60 -2 -48 -4 -52 -31 -58 -43 -10
-183 -10 -226 0 -69 16 -126 94 -127 172 0 34 2 37 38 43 20 3 55 6 77 6 38 0
75 14 65 23 -3 3 -61 -1 -130 -8 -330 -35 -461 -30 -474 18 -12 47 -6 76 24
105 63 63 189 82 565 82 218 0 255 2 285 18 45 22 49 54 18 136 -32 85 -31
190 4 266 46 102 151 167 198 125 26 -23 25 -57 -2 -152 -16 -59 -22 -106 -22
-193 -1 -121 8 -158 50 -215 28 -37 44 -96 44 -157 0 -28 5 -48 11 -48 7 0 10
23 7 65 -1 36 -3 65 -3 65 0 0 22 -7 49 -15 57 -17 110 -20 101 -5 -3 6 -18
10 -33 10 -15 1 -49 9 -75 18 -48 17 -67 39 -114 132 -26 52 -24 228 5 337 29
107 28 138 -3 168 -29 30 -66 31 -116 5z m-144 -953 c0 -39 -19 -38 -23 2 -3
24 0 32 10 29 7 -3 13 -17 13 -31z m-302 -68 c57 -14 232 -7 291 13 37 12 40
11 63 -16 25 -30 24 -56 -5 -88 -21 -25 -32 -22 -32 6 0 13 -10 36 -21 50 -27
35 -39 21 -39 -48 l0 -48 -128 4 c-110 3 -132 7 -164 26 -42 26 -68 75 -68
128 l0 38 28 -26 c15 -15 49 -32 75 -39z m297 -96 c0 -13 -4 -23 -10 -23 -5 0
-10 17 -10 38 0 27 3 33 10 22 5 -8 10 -25 10 -37z m-316 -34 c42 -18 64 -20
182 -18 109 2 137 0 145 -12 16 -26 9 -67 -16 -96 -22 -25 -24 -26 -25 -8 0
11 -10 35 -21 54 -19 31 -22 33 -31 17 -5 -10 -11 -36 -11 -59 l-2 -42 -81 1
c-129 2 -194 49 -194 144 0 22 2 40 4 40 2 0 25 -9 50 -21z m257 -152 c-8 -8
-11 0 -10 28 1 40 1 40 11 12 7 -21 7 -32 -1 -40z"/>
</g>
</svg>
