<?xml version="1.0" standalone="no"?>
<!DOCTYPE svg PUBLIC "-//W3C//DTD SVG 20010904//EN"
 "http://www.w3.org/TR/2001/REC-SVG-20010904/DTD/svg10.dtd">
<svg version="1.0" xmlns="http://www.w3.org/2000/svg"
 width="336.000000pt" height="426.000000pt" viewBox="0 0 336.000000 426.000000"
 preserveAspectRatio="xMidYMid meet">

<g transform="translate(0.000000,426.000000) scale(0.100000,-0.100000)"
fill="#000000" stroke="none">
<path d="M0 2130 l0 -2130 1680 0 1680 0 0 2130 0 2130 -1680 0 -1680 0 0
-2130z m1235 1777 c24 -20 30 -39 55 -182 15 -88 38 -225 50 -305 26 -164 32
-183 63 -178 25 3 18 -22 87 332 32 168 56 266 67 278 23 25 59 22 89 -7 22
-22 24 -31 19 -72 -8 -70 -35 -525 -35 -593 l0 -58 -52 -20 c-85 -33 -149 -51
-208 -58 -76 -9 -113 -26 -144 -66 -27 -37 -35 -94 -17 -140 13 -34 59 -77
116 -107 47 -24 59 -26 182 -26 112 0 133 -2 132 -15 0 -28 -66 -133 -175
-281 l-109 -147 -105 -4 c-87 -4 -111 -2 -141 13 -94 47 -158 186 -210 462
-11 61 -30 132 -40 157 -11 24 -71 121 -134 215 -143 213 -179 280 -165 306
15 26 41 38 67 28 12 -4 83 -82 159 -174 129 -156 165 -188 193 -170 26 16 15
47 -125 362 -52 117 -94 222 -94 234 0 51 69 79 102 42 9 -10 66 -117 128
-238 124 -241 144 -275 166 -275 19 0 19 41 -8 379 l-22 284 28 24 c34 29 48
29 81 0z m1123 -769 c40 -37 106 -86 148 -109 101 -56 118 -90 112 -223 -6
-97 -38 -207 -111 -371 -49 -109 -57 -173 -57 -436 0 -125 -3 -241 -6 -258 -8
-37 -35 -55 -70 -47 -32 8 -40 42 -64 270 -13 123 -25 198 -35 213 -41 62 -60
12 -115 -302 -28 -161 -55 -286 -64 -301 -20 -29 -66 -33 -92 -7 -20 20 -17
82 17 345 22 179 22 273 0 273 -14 0 -111 -162 -258 -428 -78 -142 -94 -158
-143 -142 -12 4 -28 21 -35 38 -16 38 -20 27 132 362 63 137 112 259 111 270
-8 52 -40 29 -255 -189 -135 -136 -222 -216 -234 -216 -26 0 -69 43 -69 69 0
11 17 41 37 68 20 26 93 122 163 213 153 200 223 302 261 385 47 99 51 172 12
191 -10 5 -90 9 -178 9 -175 0 -219 11 -246 62 -12 22 -11 27 6 39 10 8 33 14
51 14 61 0 240 62 384 132 80 39 190 88 245 109 94 37 106 39 191 37 l91 -3
71 -67z m354 -165 c26 -60 35 -174 18 -242 -13 -57 -25 -70 -46 -49 -11 11
-11 21 -3 53 15 54 7 182 -15 223 -10 19 -15 40 -12 48 11 28 37 13 58 -33z
m126 -28 c37 -112 -9 -338 -58 -289 -6 6 -4 26 5 50 23 67 28 153 11 214 -8
30 -12 58 -9 63 12 19 39 -1 51 -38z m-1924 -618 c36 -66 83 -118 138 -153 40
-25 51 -54 20 -54 -28 0 -104 53 -140 96 -46 56 -87 137 -79 158 11 28 28 14
61 -47z m-118 6 c26 -86 82 -172 135 -209 42 -28 53 -64 20 -64 -28 0 -116 84
-149 143 -35 62 -56 123 -47 137 10 16 35 12 41 -7z m1761 -1718 c47 -143 88
-268 91 -277 4 -16 -4 -18 -76 -18 l-81 0 -11 43 c-6 23 -13 48 -15 55 -4 9
-28 12 -92 10 l-88 -3 -14 -53 -14 -52 -161 2 -160 3 -56 95 c-40 69 -62 96
-78 98 -21 3 -22 1 -22 -98 l0 -101 -72 3 -73 3 -3 273 -2 272 137 0 c113 0
146 -4 179 -19 105 -48 125 -167 44 -253 l-40 -41 71 -106 c39 -58 73 -107 74
-109 3 -3 41 115 162 491 l15 48 99 -3 100 -3 86 -260z m475 243 l36 -16 -21
-57 c-18 -49 -23 -56 -41 -50 -98 31 -166 30 -166 -4 0 -24 22 -41 102 -79 75
-37 114 -76 124 -127 15 -79 -24 -152 -101 -186 -53 -24 -188 -26 -245 -3
l-40 16 0 64 c0 35 1 64 3 64 1 0 31 -9 65 -20 75 -24 131 -26 158 -6 29 22
10 44 -87 97 -102 55 -129 89 -129 164 0 66 29 111 90 143 39 20 56 23 130 19
47 -2 101 -11 122 -19z m-2482 0 c1 -7 0 -102 0 -210 l-1 -197 108 -3 108 -3
0 -60 0 -60 -180 0 -180 0 -3 273 -2 272 75 0 c53 0 75 -4 75 -12z m450 -263
l0 -275 -75 0 -75 0 0 275 0 275 75 0 75 0 0 -275z m445 256 c53 -24 76 -51
82 -99 6 -48 -17 -103 -52 -122 l-25 -13 35 -24 c69 -47 72 -149 7 -214 -47
-46 -103 -59 -257 -59 l-115 0 0 275 0 275 143 0 c116 0 149 -4 182 -19z"/>
<path d="M1788 754 c-5 -4 -8 -31 -8 -61 l0 -53 39 0 c21 0 43 6 49 13 19 22
23 61 10 80 -14 19 -78 34 -90 21z"/>
<path d="M2362 725 c-21 -79 -42 -163 -42 -169 0 -3 25 -6 55 -6 l55 0 -7 28
c-3 15 -16 63 -28 107 l-22 80 -11 -40z"/>
<path d="M1270 710 c0 -46 2 -50 24 -50 40 0 73 17 79 40 8 31 -25 60 -68 60
l-35 0 0 -50z"/>
<path d="M1270 495 l0 -55 36 0 c53 0 74 15 74 53 0 44 -15 57 -67 57 l-43 0
0 -55z"/>
</g>
</svg>
