<?xml version="1.0" standalone="no"?>
<!DOCTYPE svg PUBLIC "-//W3C//DTD SVG 20010904//EN"
 "http://www.w3.org/TR/2001/REC-SVG-20010904/DTD/svg10.dtd">
<svg version="1.0" xmlns="http://www.w3.org/2000/svg"
 width="206.000000pt" height="300.000000pt" viewBox="0 0 206.000000 300.000000"
 preserveAspectRatio="xMidYMid meet">
<metadata>
Created by potrace 1.16, written by Peter Selinger 2001-2019
</metadata>
<g transform="translate(0.000000,300.000000) scale(0.100000,-0.100000)"
fill="#000000" stroke="none">
<path d="M898 2931 c-149 -49 -243 -163 -268 -327 -36 -231 100 -419 312 -432
98 -6 168 11 225 55 25 19 47 32 51 29 3 -3 -3 -45 -13 -93 -48 -226 -189
-373 -392 -406 -38 -6 -69 -12 -71 -13 -1 -1 3 -33 9 -73 l12 -71 41 0 c61 0
200 36 270 70 170 82 286 233 343 448 24 87 27 116 27 282 1 195 -5 232 -57
335 -33 66 -121 149 -190 181 -82 37 -213 44 -299 15z m188 -161 c72 -35 116
-124 135 -269 13 -105 5 -127 -59 -160 -116 -59 -236 -19 -298 99 -28 52 -26
191 3 245 27 51 52 73 100 91 52 18 70 17 119 -6z"/>
<path d="M971 1290 c-32 -56 -51 -70 -96 -70 -44 0 -141 -58 -198 -118 -129
-137 -175 -338 -121 -532 27 -97 150 -191 249 -192 38 -1 45 -4 39 -17 -45
-106 -53 -213 -19 -269 44 -73 142 -96 192 -46 24 24 25 30 20 98 -10 135 17
209 115 322 136 155 175 251 165 397 -3 46 -12 102 -20 125 -13 39 -13 45 4
79 10 20 16 39 13 42 -6 6 -30 -23 -37 -43 -2 -6 -20 6 -39 27 -19 20 -40 37
-47 37 -18 0 -13 -10 19 -37 59 -49 90 -147 89 -276 0 -121 -21 -161 -194
-382 -59 -75 -85 -135 -88 -208 l-2 -46 -41 6 c-24 3 -51 0 -64 -7 l-24 -13
32 -28 c39 -35 55 -36 82 -7 l20 22 0 -41 c0 -49 -27 -77 -74 -77 -45 0 -81
26 -107 76 -42 82 -13 196 86 337 51 73 95 195 95 261 -1 91 -60 170 -127 170
-91 0 -163 -89 -163 -200 0 -66 16 -94 84 -153 37 -32 56 -56 56 -71 0 -129
-246 -32 -296 117 -28 82 -25 243 4 330 63 181 201 300 350 301 34 0 62 3 62
8 0 4 -7 8 -15 8 -20 0 -20 2 15 64 17 30 27 56 23 59 -4 3 -23 -21 -42 -53z
m-149 -476 c4 -3 -1 -22 -9 -42 -20 -48 -12 -116 18 -148 21 -22 31 -76 16
-90 -8 -8 -68 42 -84 70 -38 66 16 254 59 210z m173 -119 c0 -58 -6 -82 -33
-140 -18 -38 -41 -81 -50 -95 l-16 -25 -7 34 c-7 36 -3 51 38 138 20 41 23 58
16 80 -13 39 5 85 32 81 18 -3 20 -10 20 -73z"/>
</g>
</svg>
