<?xml version="1.0" standalone="no"?>
<!DOCTYPE svg PUBLIC "-//W3C//DTD SVG 20010904//EN"
 "http://www.w3.org/TR/2001/REC-SVG-20010904/DTD/svg10.dtd">
<svg version="1.0" xmlns="http://www.w3.org/2000/svg"
 width="483.000000pt" height="684.000000pt" viewBox="0 0 483.000000 684.000000"
 preserveAspectRatio="xMidYMid meet">
<metadata>
Created by potrace 1.16, written by Peter Selinger 2001-2019
</metadata>
<g transform="translate(0.000000,684.000000) scale(0.100000,-0.100000)"
fill="#000000" stroke="none">
<path d="M2375 6743 c-412 -26 -725 -243 -790 -549 -66 -311 66 -599 363 -790
33 -21 61 -46 61 -56 1 -10 -21 -27 -64 -46 -284 -133 -481 -375 -531 -652
-81 -448 180 -822 661 -947 106 -27 119 -28 335 -27 213 0 230 2 324 28 196
53 342 135 470 262 147 147 220 309 233 520 16 258 -70 478 -260 666 -75 74
-202 167 -299 218 -61 32 -64 59 -9 83 73 33 156 94 223 165 234 249 262 616
66 848 -147 172 -358 262 -653 277 -44 2 -102 2 -130 0z m232 -372 c37 -18 83
-47 101 -64 121 -117 145 -339 57 -526 -40 -83 -130 -178 -208 -220 l-46 -25
-63 33 c-259 136 -398 316 -398 517 0 91 29 161 90 218 84 78 172 107 312 102
72 -3 98 -9 155 -35z m-175 -1242 c256 -132 407 -310 445 -524 43 -251 -69
-449 -297 -525 -56 -19 -81 -21 -180 -18 -97 4 -126 9 -182 32 -77 32 -170
111 -216 183 -107 170 -98 440 20 641 45 78 170 201 238 234 30 15 59 28 63
28 5 0 54 -23 109 -51z"/>
<path d="M2418 2726 c-36 -13 -93 -42 -125 -65 -55 -38 -62 -40 -91 -30 -18 6
-70 9 -115 8 -70 -3 -93 -9 -148 -37 -66 -34 -193 -138 -184 -151 2 -5 -24
-11 -59 -14 -172 -16 -304 -124 -406 -332 -55 -111 -103 -274 -121 -410 -14
-105 -6 -443 11 -520 57 -246 134 -415 242 -531 39 -41 96 -90 128 -110 l58
-35 6 -87 c4 -48 2 -118 -3 -156 -11 -76 -9 -86 19 -86 25 0 30 30 31 175 0
69 3 125 6 125 3 0 28 -7 56 -15 29 -8 88 -16 132 -17 74 -3 80 -2 83 18 3 19
-5 21 -97 32 -126 15 -197 39 -283 98 -164 111 -290 354 -332 636 -20 134 -21
378 -1 508 17 116 64 268 110 360 129 256 330 355 535 264 99 -45 148 -108
170 -222 10 -47 17 -62 30 -62 9 0 19 2 22 5 11 11 -13 128 -36 174 -33 65
-113 135 -179 157 -29 9 -56 20 -61 25 -13 12 17 43 84 89 192 131 388 77 485
-133 19 -40 39 -104 45 -143 20 -118 18 -114 44 -114 22 0 24 3 19 43 -18 151
-75 288 -155 371 -57 59 -55 63 49 116 60 31 76 35 143 35 87 0 119 -14 180
-78 86 -89 140 -261 140 -448 0 -98 -4 -116 -25 -99 -44 36 -248 50 -440 30
-49 -5 -133 -14 -187 -20 -180 -18 -267 -102 -256 -248 l4 -59 -63 5 c-53 4
-70 1 -116 -22 -63 -30 -90 -57 -81 -79 3 -8 24 -28 47 -44 37 -25 51 -28 119
-28 63 0 81 4 107 23 39 29 45 28 36 -5 -11 -47 -67 -136 -115 -184 -35 -35
-58 -49 -94 -57 -110 -23 -180 39 -220 194 -25 97 -20 309 9 427 6 24 4 27
-18 27 -28 0 -30 -4 -48 -129 -14 -102 -7 -282 16 -366 21 -78 74 -155 126
-184 36 -21 50 -23 111 -18 101 9 160 52 230 169 l35 57 30 -43 c81 -114 194
-138 267 -57 17 19 30 21 134 21 100 0 113 -2 108 -16 -3 -9 -6 -20 -6 -24 0
-5 -37 -28 -82 -52 -137 -71 -248 -199 -248 -285 0 -19 4 -24 22 -21 16 2 24
12 29 36 16 79 106 168 239 236 87 45 88 47 95 89 3 23 9 57 12 76 5 31 4 33
-13 26 -34 -14 -208 -18 -282 -6 -81 13 -180 50 -228 87 -43 32 -92 108 -111
173 -12 43 -13 61 -4 92 21 69 80 119 160 135 l30 6 -6 -49 c-11 -95 28 -153
87 -131 54 20 99 91 100 156 0 46 27 53 190 53 202 0 277 -29 385 -150 99
-112 216 -332 236 -445 19 -111 7 -293 -26 -396 -49 -152 -126 -280 -235 -390
-59 -60 -192 -153 -221 -155 -9 -1 -24 -7 -32 -13 -21 -18 -122 -51 -179 -58
-51 -7 -70 -26 -49 -47 8 -8 36 -6 108 11 53 12 97 21 99 19 1 -1 -3 -45 -9
-98 -13 -117 -3 -184 28 -184 19 0 20 6 18 85 -2 47 3 116 10 154 l12 69 69
41 c206 123 361 325 431 562 48 160 45 385 -6 516 l-18 46 29 74 c81 211 111
485 71 652 -51 211 -169 331 -340 344 -68 4 -181 -13 -181 -28 0 -5 -26 7 -57
26 -101 61 -167 68 -275 30z m613 -103 c99 -44 175 -165 199 -316 15 -94 8
-281 -15 -377 -24 -102 -65 -230 -73 -230 -4 0 -23 28 -42 61 -19 34 -52 85
-73 113 -42 57 -146 166 -159 166 -16 0 -7 18 12 23 18 5 20 14 20 79 0 175
-35 332 -96 433 l-33 55 27 6 c15 3 32 8 37 10 27 10 154 -5 196 -23z"/>
</g>
</svg>
