<?xml version="1.0" standalone="no"?>
<!DOCTYPE svg PUBLIC "-//W3C//DTD SVG 20010904//EN"
 "http://www.w3.org/TR/2001/REC-SVG-20010904/DTD/svg10.dtd">
<svg version="1.0" xmlns="http://www.w3.org/2000/svg"
 width="201.000000pt" height="294.000000pt" viewBox="0 0 201.000000 294.000000"
 preserveAspectRatio="xMidYMid meet">
<metadata>
Created by potrace 1.16, written by Peter Selinger 2001-2019
</metadata>
<g transform="translate(0.000000,294.000000) scale(0.100000,-0.100000)"
fill="#000000" stroke="none">
<path d="M1159 2838 c-7 -13 -98 -142 -204 -288 -105 -146 -206 -287 -224
-313 l-33 -48 9 -87 8 -87 239 -3 238 -2 -4 -210 -3 -210 120 0 120 0 -2 47
c-2 27 -4 121 -6 211 l-3 162 73 0 72 0 5 33 c3 17 8 62 11 99 l6 67 -86 -6
-87 -6 7 314 c3 173 9 322 11 332 5 16 -6 17 -125 17 -125 0 -131 -1 -142 -22z
m46 -412 c-7 -217 -8 -224 -29 -230 -27 -7 -296 -8 -296 0 0 8 69 109 185 269
55 77 109 153 119 168 9 16 20 26 23 23 3 -3 2 -106 -2 -230z"/>
<path d="M420 1293 c-8 -3 -30 -19 -47 -36 -47 -44 -46 -93 2 -136 20 -17 54
-40 77 -52 43 -22 307 -175 371 -216 55 -35 39 -39 -24 -7 -75 38 -298 109
-405 130 -79 15 -95 15 -134 3 -55 -17 -90 -65 -90 -121 0 -64 21 -84 124
-117 99 -32 310 -83 419 -102 73 -12 96 -36 25 -25 -267 40 -441 48 -503 22
-38 -16 -75 -68 -75 -104 0 -34 28 -82 54 -92 34 -13 262 -40 406 -48 116 -6
125 -8 125 -27 0 -18 -9 -21 -100 -27 -200 -13 -324 -53 -353 -114 -14 -31
-14 -37 1 -70 25 -50 92 -80 151 -65 84 21 292 41 494 47 224 6 261 12 337 52
64 32 153 34 214 3 25 -13 42 -17 46 -11 8 12 -54 40 -104 47 -64 9 -65 10
-35 46 31 37 58 96 48 106 -4 3 -8 2 -10 -4 -28 -77 -106 -149 -201 -185 -50
-20 -85 -24 -262 -31 -257 -9 -498 -33 -554 -55 -24 -9 -86 26 -103 57 -41 81
85 141 329 156 78 4 107 3 107 -5 0 -7 4 -12 8 -12 5 0 12 44 15 98 10 155 74
366 139 454 7 9 9 20 5 24 -4 4 -14 -1 -22 -12 -13 -18 -16 -18 -42 -3 -171
97 -453 266 -470 282 -43 39 -20 102 45 128 76 30 164 -12 342 -161 111 -93
221 -165 282 -186 l49 -16 -53 -48 -53 -47 -3 -196 c-3 -192 -3 -195 19 -216
28 -26 90 -28 139 -3 50 24 70 72 73 171 l2 82 38 -6 c48 -9 50 10 1 19 -19 4
-42 10 -50 13 -11 4 -14 -11 -14 -86 0 -107 -15 -153 -59 -175 -91 -48 -176
26 -106 93 32 29 32 55 0 87 -22 22 -25 34 -25 92 0 37 5 84 10 104 39 141
292 154 409 22 38 -43 51 -78 51 -135 0 -16 5 -29 10 -29 6 0 10 16 10 35 l0
35 50 -25 c49 -25 80 -32 80 -17 0 4 -30 20 -65 36 -56 25 -69 36 -92 77 -49
90 -134 131 -280 135 -146 3 -198 29 -416 206 -174 141 -280 189 -357 161z
m-5 -342 c105 -22 272 -77 369 -121 55 -24 67 -33 62 -48 -4 -9 -17 -43 -29
-75 l-22 -59 -50 7 c-71 9 -327 69 -429 100 -103 31 -126 50 -126 103 0 46 22
79 64 98 41 18 55 17 161 -5z m245 -346 c126 -24 119 -20 110 -63 -4 -20 -11
-58 -15 -84 l-6 -48 -63 0 c-81 0 -359 27 -424 41 -101 21 -112 122 -18 165
41 19 296 12 416 -11z"/>
</g>
</svg>
