<?xml version="1.0" standalone="no"?>
<!DOCTYPE svg PUBLIC "-//W3C//DTD SVG 20010904//EN"
 "http://www.w3.org/TR/2001/REC-SVG-20010904/DTD/svg10.dtd">
<svg version="1.0" xmlns="http://www.w3.org/2000/svg"
 width="205.000000pt" height="298.000000pt" viewBox="0 0 205.000000 298.000000"
 preserveAspectRatio="xMidYMid meet">
<metadata>
Created by potrace 1.16, written by Peter Selinger 2001-2019
</metadata>
<g transform="translate(0.000000,298.000000) scale(0.100000,-0.100000)"
fill="#000000" stroke="none">
<path d="M1165 2916 c-99 -16 -141 -29 -230 -74 -86 -43 -188 -142 -232 -227
-94 -179 -126 -505 -67 -682 68 -204 257 -313 469 -270 136 28 232 105 294
237 23 50 26 67 26 175 0 111 -2 124 -28 176 -54 111 -157 179 -283 187 -91 6
-162 -11 -226 -54 -28 -19 -53 -33 -55 -30 -3 2 3 33 11 68 48 188 169 302
367 344 88 19 87 16 73 118 -8 52 0 50 -119 32z m-45 -661 c121 -84 128 -314
13 -402 -51 -39 -144 -44 -193 -11 -66 45 -110 167 -110 306 0 76 13 96 80
127 55 25 160 15 210 -20z"/>
<path d="M810 1489 c-67 -27 -82 -75 -50 -170 18 -51 21 -80 18 -142 -5 -74
-9 -87 -86 -240 -63 -126 -83 -178 -92 -232 -17 -109 9 -234 72 -347 19 -33
20 -42 9 -79 -16 -52 -6 -63 14 -16 l15 37 42 -30 c41 -30 68 -38 68 -21 0 5
-14 14 -30 21 -75 31 -155 179 -175 321 -12 91 8 163 97 339 l83 165 0 105 0
106 26 -4 c26 -4 82 19 94 38 8 14 -68 50 -93 43 -12 -3 -25 -17 -30 -32 l-10
-26 -11 28 c-16 42 -14 63 12 91 32 37 73 42 127 14 54 -28 86 -80 96 -156 8
-65 -10 -160 -41 -222 -53 -104 -82 -262 -65 -346 30 -145 166 -207 253 -116
38 40 57 93 57 161 0 100 -27 144 -115 188 -96 48 -115 83 -70 128 31 32 92
33 169 5 119 -45 172 -112 212 -270 71 -276 -89 -586 -318 -616 -50 -7 -67
-24 -23 -24 25 0 25 -1 11 -29 -20 -37 -36 -111 -26 -111 5 0 14 17 21 37 23
72 44 113 57 113 7 0 38 12 68 27 104 51 193 176 230 323 35 139 3 350 -71
459 -42 64 -172 131 -252 131 -30 0 -64 -5 -75 -11 -19 -10 -20 -9 -15 12 26
105 14 218 -29 281 -27 38 -94 79 -130 77 -10 0 -30 -5 -44 -10z m181 -569
c-22 -100 -24 -129 -10 -153 8 -12 13 -37 11 -54 -3 -27 -8 -33 -27 -33 -27 0
-39 18 -49 71 -9 48 9 169 36 247 l22 62 14 -42 c12 -35 12 -53 3 -98z m180
-47 c35 -71 21 -213 -20 -213 -15 0 -17 7 -13 54 6 71 -12 120 -54 152 -28 22
-34 33 -34 64 l0 38 50 -27 c37 -19 56 -37 71 -68z"/>
</g>
</svg>
