<?xml version="1.0" standalone="no"?>
<!DOCTYPE svg PUBLIC "-//W3C//DTD SVG 20010904//EN"
 "http://www.w3.org/TR/2001/REC-SVG-20010904/DTD/svg10.dtd">
<svg version="1.0" xmlns="http://www.w3.org/2000/svg"
 width="203.000000pt" height="296.000000pt" viewBox="0 0 203.000000 296.000000"
 preserveAspectRatio="xMidYMid meet">

<g transform="translate(0.000000,296.000000) scale(0.100000,-0.100000)"
fill="#000000" stroke="none">
<path d="M646 2864 c-3 -9 -6 -54 -6 -101 l0 -86 93 6 c50 4 174 9 275 13
l182 7 0 -22 c0 -54 -79 -220 -242 -509 -174 -309 -276 -531 -249 -546 3 -2
59 -7 124 -11 l117 -7 0 30 c0 61 65 223 205 512 79 162 153 320 165 350 50
127 90 280 90 345 l0 35 -374 0 c-332 0 -375 -2 -380 -16z"/>
<path d="M637 1053 c-115 -86 -182 -249 -124 -306 16 -17 21 -32 19 -60 -3
-31 2 -43 27 -66 17 -16 31 -38 31 -49 0 -11 12 -34 26 -51 l26 -31 -50 -78
c-118 -184 -145 -270 -102 -325 55 -69 133 -34 237 105 38 51 76 105 85 120
11 17 24 25 35 22 31 -8 437 35 482 51 24 8 65 33 91 55 60 50 107 70 165 70
31 0 44 4 39 11 -7 12 -94 8 -127 -6 -15 -6 -17 -4 -11 19 3 15 2 26 -4 26 -5
0 -12 -10 -16 -22 -9 -37 -61 -92 -113 -120 -42 -23 -73 -29 -213 -43 -292
-29 -377 -23 -420 32 -29 37 -25 67 12 98 l32 27 13 -26 c8 -14 20 -26 28 -26
19 0 55 39 55 60 0 18 85 35 231 47 78 7 104 23 37 23 -56 0 -224 -25 -313
-46 -152 -37 -184 -156 -55 -208 22 -9 40 -20 40 -24 0 -20 -161 -221 -193
-241 -43 -26 -57 -26 -91 0 -19 15 -26 30 -26 55 0 31 3 34 29 34 38 0 51 32
25 61 -18 20 -17 22 6 67 57 107 196 287 324 419 33 34 57 66 53 70 -9 9 -137
-122 -216 -221 l-57 -73 -22 26 c-12 14 -22 33 -22 42 0 39 91 197 149 259 64
68 72 86 22 51 -38 -28 -115 -130 -152 -203 -16 -32 -33 -58 -38 -58 -4 0 -16
9 -26 20 -38 42 9 181 91 270 30 32 51 61 46 64 -17 10 -103 -94 -133 -160
-25 -55 -32 -64 -44 -54 -36 30 -6 133 61 215 62 77 84 85 220 85 129 0 370
-23 437 -41 95 -25 202 -107 222 -168 3 -11 11 -21 17 -21 5 0 7 7 4 15 -3 8
-9 22 -13 32 -5 13 -2 15 18 9 51 -15 132 -20 125 -8 -4 7 -21 12 -37 12 -47
0 -137 36 -177 71 -88 78 -221 106 -542 115 l-185 5 -38 -28z m203 -511 c0
-18 -28 -45 -38 -38 -18 11 -14 34 6 39 28 8 32 7 32 -1z m-306 -318 c9 -23 8
-24 -14 -24 -22 0 -23 1 -14 24 8 20 20 20 28 0z"/>
</g>
</svg>
