<?xml version="1.0" standalone="no"?>
<!DOCTYPE svg PUBLIC "-//W3C//DTD SVG 20010904//EN"
 "http://www.w3.org/TR/2001/REC-SVG-20010904/DTD/svg10.dtd">
<svg version="1.0" xmlns="http://www.w3.org/2000/svg"
 width="199.000000pt" height="289.000000pt" viewBox="0 0 199.000000 289.000000"
 preserveAspectRatio="xMidYMid meet">
<metadata>
Created by potrace 1.16, written by Peter Selinger 2001-2019
</metadata>
<g transform="translate(0.000000,289.000000) scale(0.100000,-0.100000)"
fill="#000000" stroke="none">
<path d="M861 2840 c-24 -5 -45 -11 -46 -12 -2 -2 -6 -40 -10 -85 l-7 -82 68
5 c38 3 77 7 86 9 32 6 157 -14 188 -30 62 -32 87 -113 55 -175 -32 -61 -136
-111 -263 -126 -34 -3 -64 -9 -66 -13 -2 -3 -7 -36 -11 -73 l-7 -68 53 0 c278
0 420 -139 328 -321 -51 -101 -234 -189 -432 -206 l-69 -6 6 -31 c3 -17 8 -52
12 -79 l6 -47 52 6 c260 30 438 99 560 218 129 126 166 295 93 435 -31 61
-113 126 -182 146 -30 9 -55 19 -55 23 0 4 25 20 56 36 167 88 206 296 76 407
-69 59 -117 71 -292 75 -85 2 -175 -1 -199 -6z"/>
<path d="M359 1163 c-39 -6 -73 -47 -73 -87 0 -66 18 -78 241 -166 114 -44
216 -84 226 -88 10 -4 -92 -7 -225 -7 -134 0 -260 -4 -282 -8 -79 -17 -114
-108 -66 -170 30 -38 141 -64 390 -93 36 -4 56 -9 45 -11 -148 -29 -264 -74
-324 -128 -35 -32 -41 -43 -41 -77 0 -31 7 -46 31 -70 30 -30 31 -31 107 -25
42 3 141 24 220 47 78 22 159 40 180 40 l38 0 17 -72 c20 -86 57 -144 112
-176 33 -19 52 -22 110 -20 134 6 284 107 354 237 27 52 37 61 78 75 26 9 55
16 65 16 10 0 18 7 18 15 0 14 -9 13 -109 -19 -22 -8 -23 -7 -16 33 4 25 3 41
-3 41 -6 0 -13 -19 -17 -42 -18 -106 -74 -193 -165 -257 -168 -118 -322 -105
-386 32 -46 101 -42 176 18 307 l30 65 16 -25 c44 -65 87 -77 137 -38 38 30
55 76 56 155 1 68 1 68 15 36 8 -18 19 -33 25 -33 6 0 8 6 5 13 -2 6 -17 49
-32 95 -14 45 -29 80 -32 77 -4 -3 -5 -59 -3 -124 3 -131 -9 -177 -53 -206
-35 -23 -69 -13 -91 28 -17 32 -17 35 0 60 22 34 13 74 -20 89 -30 14 -39 63
-33 187 6 132 46 186 145 197 38 5 70 1 124 -16 63 -19 81 -30 135 -84 50 -50
66 -74 78 -118 9 -30 14 -62 10 -71 -3 -10 -1 -17 5 -17 6 0 14 14 17 30 4 17
7 30 8 30 0 0 23 -7 50 -15 57 -17 76 -19 76 -6 0 5 -15 12 -32 16 -91 19
-105 26 -123 69 -64 143 -269 242 -400 192 -80 -31 -115 -95 -115 -213 0 -37
-4 -63 -10 -63 -17 0 -291 101 -434 160 -111 46 -130 57 -141 83 -41 98 67
129 245 72 89 -29 243 -98 298 -135 39 -27 43 -10 5 18 -51 36 -189 101 -279
131 -90 30 -175 43 -225 34z m477 -379 l31 -6 -13 -46 c-8 -25 -17 -76 -21
-114 l-6 -68 -91 6 c-157 8 -307 25 -411 45 -114 22 -145 45 -145 103 0 46 27
75 80 86 46 9 520 5 576 -6z m79 -128 c13 -74 13 -80 -4 -102 -21 -27 -55
-108 -71 -171 -11 -42 -12 -43 -53 -43 -23 0 -107 -18 -187 -41 -80 -22 -175
-43 -212 -46 -62 -5 -68 -4 -92 20 -93 93 80 205 379 246 119 17 165 15 165
-7 0 -21 9 -34 20 -27 5 3 3 23 -2 46 -11 42 0 142 25 224 12 39 12 40 15 10
1 -16 9 -65 17 -109z"/>
</g>
</svg>
