<?xml version="1.0" standalone="no"?>
<!DOCTYPE svg PUBLIC "-//W3C//DTD SVG 20010904//EN"
 "http://www.w3.org/TR/2001/REC-SVG-20010904/DTD/svg10.dtd">
<svg version="1.0" xmlns="http://www.w3.org/2000/svg"
 width="203.000000pt" height="296.000000pt" viewBox="0 0 203.000000 296.000000"
 preserveAspectRatio="xMidYMid meet">
<metadata>
Created by potrace 1.16, written by Peter Selinger 2001-2019
</metadata>
<g transform="translate(0.000000,296.000000) scale(0.100000,-0.100000)"
fill="#000000" stroke="none">
<path d="M886 2754 c-97 -74 -176 -140 -176 -146 0 -8 32 -68 47 -87 1 -2 37
11 78 29 41 18 79 30 83 26 4 -4 7 -181 6 -392 l0 -384 130 0 131 0 1 545 0
545 -62 0 -62 0 -176 -136z"/>
<path d="M1069 1520 c-79 -41 -137 -140 -146 -245 -4 -48 0 -76 21 -138 46
-136 45 -137 -129 -130 -116 5 -141 3 -201 -15 -125 -38 -184 -112 -169 -211
4 -25 6 -77 6 -116 -1 -42 4 -88 14 -115 11 -31 14 -61 10 -95 -11 -88 27
-179 92 -220 27 -17 32 -26 33 -57 0 -50 47 -104 103 -119 45 -12 148 -6 195
12 32 12 82 58 82 74 0 7 22 15 54 18 78 8 132 39 216 126 52 53 95 86 139
108 34 17 58 33 53 37 -12 7 -50 -8 -106 -42 l-39 -24 7 29 c4 15 9 36 13 47
3 12 1 17 -8 14 -7 -2 -17 -21 -21 -42 -24 -113 -135 -216 -251 -232 -40 -6
-46 -3 -81 32 -22 22 -33 40 -26 42 6 2 23 14 37 26 28 24 35 69 20 113 -7 19
-2 25 31 42 54 28 125 111 95 111 -5 0 -21 -16 -36 -35 -15 -19 -46 -44 -67
-55 -46 -23 -74 -27 -43 -5 45 32 50 119 8 142 -13 8 -11 12 14 31 18 13 35
38 42 61 10 34 9 44 -7 72 -11 18 -36 41 -57 52 -53 27 -161 34 -221 14 -25
-9 -46 -13 -46 -9 0 4 -9 18 -20 32 -26 34 -26 6 0 -38 19 -31 21 -32 43 -18
56 37 206 28 262 -16 29 -23 35 -82 10 -114 -13 -18 -14 -17 -15 17 0 23 -7
42 -20 54 -29 26 -43 8 -48 -64 -5 -68 -5 -68 -129 -92 -165 -31 -282 35 -314
176 -24 109 24 177 153 216 64 20 85 21 203 16 123 -6 133 -5 150 13 23 26 22
51 -9 142 -30 88 -32 124 -11 196 37 125 175 223 228 164 22 -24 21 -46 -4
-145 -24 -92 -29 -244 -10 -313 6 -23 27 -61 46 -85 41 -51 75 -135 75 -184 0
-19 5 -37 11 -41 9 -5 10 9 7 50 -3 31 -4 56 -3 56 2 0 18 -6 36 -14 48 -19
119 -30 119 -18 0 6 -15 13 -32 17 -89 18 -137 38 -142 61 -3 12 -23 44 -43
71 -20 26 -43 64 -50 83 -20 56 -16 224 7 315 25 99 25 126 -1 159 -25 32 -76
35 -130 6z m-456 -959 c56 -16 162 -10 252 14 71 19 102 13 115 -20 10 -25 -2
-75 -17 -75 -5 1 -17 19 -28 42 -11 23 -26 44 -32 46 -19 5 -35 -47 -30 -95
l4 -41 -64 -12 c-83 -16 -191 -8 -239 17 -49 25 -93 103 -101 179 l-6 56 49
-49 c35 -35 63 -53 97 -62z m5 -162 c69 -14 200 -7 261 14 53 19 74 11 90 -33
7 -21 7 -39 0 -58 l-10 -26 -18 39 c-10 22 -25 46 -34 53 -14 12 -17 10 -24
-15 -4 -15 -7 -47 -7 -70 l1 -42 -49 -11 c-27 -5 -92 -10 -145 -10 l-95 0 -38
38 c-40 40 -67 121 -56 166 l6 24 30 -28 c20 -19 50 -33 88 -41z m309 -185
c38 -29 43 -62 14 -88 -18 -17 -19 -16 -31 18 -6 19 -17 40 -25 46 -12 10 -17
7 -25 -15 -5 -14 -10 -41 -10 -60 0 -30 -3 -33 -35 -39 -99 -19 -195 34 -195
106 l0 33 88 3 c48 1 103 6 122 11 54 14 61 13 97 -15z"/>
</g>
</svg>
