<?xml version="1.0" standalone="no"?>
<!DOCTYPE svg PUBLIC "-//W3C//DTD SVG 20010904//EN"
 "http://www.w3.org/TR/2001/REC-SVG-20010904/DTD/svg10.dtd">
<svg version="1.0" xmlns="http://www.w3.org/2000/svg"
 width="122.000000pt" height="320.000000pt" viewBox="0 0 122.000000 320.000000"
 preserveAspectRatio="xMidYMid meet">
<metadata>
Created by potrace 1.16, written by Peter Selinger 2001-2019
</metadata>
<g transform="translate(0.000000,320.000000) scale(0.100000,-0.100000)"
fill="#000000" stroke="none">
<path d="M480 3079 c-228 -34 -369 -202 -411 -488 -14 -103 -7 -303 15 -384
60 -222 207 -327 456 -327 162 0 270 40 359 135 86 91 125 194 141 378 17 196
-19 396 -92 510 -61 95 -171 160 -299 177 -84 11 -93 11 -169 -1z m150 -221
c89 -45 138 -171 147 -379 9 -183 -26 -308 -99 -361 -28 -19 -45 -23 -114 -23
-69 0 -85 3 -117 25 -77 53 -117 184 -117 383 0 137 20 238 58 292 33 48 101
85 157 85 22 0 61 -10 85 -22z"/>
<path d="M615 1371 c-35 -9 -71 -27 -104 -52 -13 -11 -32 -19 -42 -19 -36 0
-112 -41 -163 -90 -29 -27 -57 -50 -63 -50 -19 0 -73 -67 -88 -110 -31 -89 2
-132 95 -124 30 3 68 6 85 7 l29 2 -4 -50 c-3 -27 -5 -93 -4 -145 1 -165 49
-236 188 -275 78 -22 97 -35 189 -127 104 -105 118 -106 29 -1 l-44 52 66 -6
c41 -4 66 -2 66 4 0 6 -29 13 -64 16 -71 7 -169 48 -192 81 -8 12 -32 48 -54
81 -21 33 -48 72 -60 88 -16 20 -18 27 -8 27 22 0 60 46 56 67 -4 22 -57 30
-88 13 -18 -10 -20 -8 -20 19 0 63 90 92 158 51 18 -11 45 -41 60 -66 58 -99
80 -123 118 -130 89 -17 173 47 195 149 21 97 17 196 -10 243 -34 59 -85 94
-138 94 -37 0 -48 -5 -83 -41 -22 -23 -54 -70 -71 -105 -33 -67 -58 -84 -123
-84 -49 0 -76 24 -76 69 0 45 6 53 30 39 14 -9 29 -7 64 6 25 10 46 21 46 26
0 8 -40 26 -82 36 -16 3 -28 8 -28 10 0 19 51 97 92 140 68 72 130 98 233 99
66 0 90 -5 138 -27 80 -38 158 -115 193 -191 27 -57 29 -71 29 -178 l0 -116
-42 -84 c-43 -85 -50 -105 -34 -95 11 7 17 -22 26 -114 3 -36 11 -72 16 -80 7
-11 8 -1 4 30 -3 25 -6 83 -7 130 -2 75 1 92 27 150 28 60 30 73 30 185 0 117
-1 122 -34 188 -64 127 -179 208 -319 223 -31 4 -69 13 -83 20 -35 18 -97 25
-134 15z m118 -30 c4 -4 -18 -15 -50 -25 -109 -35 -214 -168 -246 -313 -11
-46 -18 -59 -34 -61 -27 -4 -63 42 -63 80 0 25 3 28 24 22 24 -6 86 21 86 38
0 4 -20 13 -45 21 l-46 13 32 47 c47 71 154 165 208 182 44 13 117 11 134 -4z
m137 -263 c53 -36 75 -90 74 -178 -2 -156 -50 -236 -148 -247 -40 -5 -48 -2
-72 23 -15 16 -45 58 -68 93 -24 38 -54 71 -73 81 l-33 17 46 18 c25 9 48 24
51 32 5 12 17 14 62 9 31 -3 67 -9 80 -12 23 -7 23 -7 6 20 -11 16 -20 54 -23
96 l-5 70 35 0 c20 0 49 -10 68 -22z m-418 -183 l29 -25 -25 -10 c-72 -27 -74
-117 -5 -206 54 -68 119 -167 115 -172 -2 -2 -30 7 -62 20 -104 41 -143 135
-129 313 4 49 9 93 12 97 8 15 35 8 65 -17z"/>
</g>
</svg>
